<svg width="16" height="16" viewBox="0 0 16 16" fill="none" xmlns="http://www.w3.org/2000/svg">
    <g clip-path="url(#clip0_5_64)">
        <rect x="2" y="2" width="12" height="12" fill="white" />
        <path
            d="M2.81092 16H13.1891C15.0401 16 16 15.0401 16 13.2147V2.78522C16 0.951261 15.0401 0 13.1891 0H2.81092C0.959824 0 0 0.951261 0 2.78522V13.2147C0 15.0487 0.959824 16 2.81092 16ZM5.46755 12.6834C5.1334 12.6834 4.9105 12.4349 4.9105 12.0407V4.67914C4.9105 3.80502 5.37336 3.32512 6.24741 3.32512H9.79538C10.6695 3.32512 11.1323 3.80502 11.1323 4.67914V12.0407C11.1323 12.4349 10.9095 12.6834 10.5752 12.6834C10.3353 12.6834 10.1896 12.5549 9.80396 12.1778L8.06425 10.4552C8.0386 10.4381 8.00428 10.4381 7.98712 10.4552L6.23893 12.1778C5.86177 12.5549 5.7161 12.6834 5.46755 12.6834Z"
            fill="url(#paint0_linear_5_64)" />
    </g>
    <defs>
        <linearGradient id="paint0_linear_5_64" x1="3" y1="1.53093" x2="11.5318" y2="13.4778"
            gradientUnits="userSpaceOnUse">
            <stop stop-color="#007AFF" />
            <stop offset="1" stop-color="#5AC8FA" />
        </linearGradient>
        <clipPath id="clip0_5_64">
            <rect width="16" height="16" fill="white" />
        </clipPath>
    </defs>
</svg>